<?xml version="1.0" standalone="no"?>
<!DOCTYPE svg PUBLIC "-//W3C//DTD SVG 20010904//EN"
 "http://www.w3.org/TR/2001/REC-SVG-20010904/DTD/svg10.dtd">
<svg version="1.0" xmlns="http://www.w3.org/2000/svg"
 width="193.000000pt" height="193.000000pt" viewBox="0 0 193.000000 193.000000"
 preserveAspectRatio="xMidYMid meet">
<metadata>
Created by potrace 1.11, written by Peter Selinger 2001-2013
</metadata>
<g transform="translate(0.000000,193.000000) scale(0.100000,-0.100000)"
fill="#000000" stroke="none">
<path d="M110 1310 c1 -635 1 -648 39 -694 15 -18 139 -115 531 -417 257 -199
254 -197 292 -193 18 2 38 10 43 17 6 6 45 38 89 71 43 32 86 65 95 72 23 19
174 135 207 159 15 11 32 25 38 30 6 6 29 23 51 39 22 17 42 32 45 36 3 3 41
32 85 65 104 78 114 86 137 110 48 48 48 46 48 705 l0 620 -850 0 -850 0 0
-620z"/>
</g>
</svg>
